<?xml version="1.0" encoding="utf-8"?>
<!-- Generator: Adobe Illustrator 17.1.0, SVG Export Plug-In . SVG Version: 6.00 Build 0)  -->
<!DOCTYPE svg PUBLIC "-//W3C//DTD SVG 1.1//EN" "http://www.w3.org/Graphics/SVG/1.1/DTD/svg11.dtd">
<svg version="1.1" id="Layer_1" xmlns="http://www.w3.org/2000/svg" xmlns:xlink="http://www.w3.org/1999/xlink" x="0px" y="0px"
	 viewBox="0 0 270 270" enable-background="new 0 0 270 270" xml:space="preserve">
<g>
	<path fill="#FF3333" d="M135,1c35.793,0,69.443,13.938,94.752,39.248C255.062,65.557,269,99.207,269,135
		s-13.938,69.443-39.248,94.752C204.443,255.062,170.793,269,135,269s-69.443-13.938-94.752-39.248C14.938,204.443,1,170.793,1,135
		s13.938-69.443,39.248-94.752C65.557,14.938,99.207,1,135,1 M135,0C60.442,0,0,60.442,0,135s60.442,135,135,135s135-60.442,135-135
		S209.558,0,135,0L135,0z"/>
</g>
</svg>
